<svg width="200" height="200" viewBox="0 0 200 200" fill="none" xmlns="http://www.w3.org/2000/svg">
<g clip-path="url(#clip0_1_3286)">
<g clip-path="url(#clip1_1_3286)">
<path d="M0.599976 95.7C0.599976 50.7 0.599976 28.1 14.5 14.1C28.6 0.200013 51.1 0.200012 96.2 0.200012H104.2C149.2 0.200012 171.8 0.200013 185.8 14.1C199.7 28 199.7 50.7 199.7 95.7V103.7C199.7 148.7 199.7 171.3 185.8 185.3C171.9 199.2 149.2 199.2 104.2 199.2H96.2C51.2 199.2 28.6 199.2 14.6 185.3C0.599976 171.3 0.599976 148.8 0.599976 103.7V95.7Z" fill="#FF7700"/>
<path d="M100.1 99.2C109.8 99.2 118.6 95.2 124.9 88.9C131.2 82.6 135.2 73.8 135.2 64.1C135.2 54.4 131.2 45.6 124.9 39.3C118.6 33 109.8 29 100.1 29C90.3999 29 81.5999 33 75.2999 39.3C68.9999 45.5 64.9999 54.3 64.9999 64.1C64.9999 73.9 68.9999 82.6 75.2999 88.9C81.5999 95.2 90.4999 99.2 100.1 99.2ZM88.8999 52.7C91.7999 49.8 95.7999 48 100.2 48C104.7 48 108.6 49.8 111.5 52.7C114.4 55.6 116.2 59.6 116.2 64C116.2 68.5 114.4 72.4 111.5 75.3C108.6 78.2 104.6 80 100.2 80C95.6999 80 91.7999 78.2 88.8999 75.3C85.9999 72.4 84.1999 68.4 84.1999 64C84.1999 59.6 86.0999 55.6 88.8999 52.7Z" fill="white"/>
<path d="M147.5 113.4L137.2 99.3C136.6 98.5 135.4 98.4 134.7 99.1C125 107.4 113 112.8 100.1 112.8C87.2 112.8 75.3 107.4 65.5 99.1C64.8 98.5 63.6 98.6 63 99.3L52.7 113.4C52.2 114.1 52.3 115 52.9 115.6C61.6 122.6 71.7 127.4 82.2 129.9L60.4 168.3C59.8 169.4 60.6 170.8 61.8 170.8H83.1C83.8 170.8 84.4 170.4 84.6 169.7L99.8 135.7L115 169.7C115.2 170.3 115.8 170.8 116.5 170.8H137.8C139.1 170.8 139.8 169.5 139.2 168.3L117.4 129.9C127.9 127.4 138 122.8 146.7 115.6C148 115 148.1 114.1 147.5 113.4Z" fill="white"/>
</g>
</g>
<defs>
<clipPath id="clip0_1_3286">
<rect width="200" height="200" fill="white"/>
</clipPath>
<clipPath id="clip1_1_3286">
<rect width="200" height="200" fill="white"/>
</clipPath>
</defs>
</svg>
